<svg width="22" height="22" viewBox="0 0 22 22" fill="none" xmlns="http://www.w3.org/2000/svg">
<path fill-rule="evenodd" clip-rule="evenodd" d="M4.12533 2.74984C3.36593 2.74984 2.75033 3.36545 2.75033 4.12484V6.4165H6.41699V2.74984H4.12533ZM6.41699 8.24984H2.75033V17.8748C2.75033 18.6342 3.36593 19.2498 4.12533 19.2498H6.41699L6.41699 8.24984ZM8.25033 8.24984H19.2503V17.8748C19.2503 18.6342 18.6347 19.2498 17.8753 19.2498H8.25032L8.25033 8.24984ZM19.2503 6.4165H8.25033V2.74984H17.8753C18.6347 2.74984 19.2503 3.36545 19.2503 4.12484V6.4165ZM0.916992 4.12484C0.916992 2.35292 2.35341 0.916504 4.12533 0.916504H17.8753C19.6472 0.916504 21.0837 2.35292 21.0837 4.12484V17.8748C21.0837 19.6468 19.6472 21.0832 17.8753 21.0832H4.12533C2.35341 21.0832 0.916992 19.6468 0.916992 17.8748V4.12484Z" fill="#4A4A4A"/>
</svg>