<svg width="22" height="22" viewBox="0 0 22 22" fill="none" xmlns="http://www.w3.org/2000/svg">
<path fill-rule="evenodd" clip-rule="evenodd" d="M5.7619 2.74984C5.44113 2.74984 5.13851 2.87397 4.91934 3.08705C4.70104 3.29928 4.58333 3.58153 4.58333 3.87021V18.1295C4.58333 18.4181 4.70104 18.7004 4.91934 18.9126C5.13851 19.1257 5.44113 19.2498 5.7619 19.2498H16.2381C16.5589 19.2498 16.8615 19.1257 17.0807 18.9126C17.299 18.7004 17.4167 18.4181 17.4167 18.1295V7.33317H14.6667C14.1804 7.33317 13.7141 7.14002 13.3703 6.7962C13.0265 6.45238 12.8333 5.98607 12.8333 5.49984V2.74984H5.7619ZM14.6667 5.49984H16.4872L14.6667 3.74061V5.49984ZM19.25 18.1295V6.4165V6.0091C19.25 5.76054 19.1491 5.52264 18.9703 5.34991L14.6489 1.17399C14.478 1.00882 14.2496 0.916504 14.0119 0.916504H13.75H5.7619C4.9713 0.916504 4.20806 1.2216 3.64136 1.77256C3.07378 2.32437 2.75 3.07837 2.75 3.87021V18.1295C2.75 18.9213 3.07378 19.6753 3.64136 20.2271C4.20806 20.7781 4.9713 21.0832 5.7619 21.0832H16.2381C17.0287 21.0832 17.7919 20.7781 18.3586 20.2271C18.9262 19.6753 19.25 18.9213 19.25 18.1295ZM7.33333 5.49984C6.82707 5.49984 6.41667 5.91024 6.41667 6.4165C6.41667 6.92277 6.82707 7.33317 7.33333 7.33317H10.0833C10.5896 7.33317 11 6.92277 11 6.4165C11 5.91024 10.5896 5.49984 10.0833 5.49984H7.33333ZM6.41667 10.9998C6.41667 10.4936 6.82707 10.0832 7.33333 10.0832H14.6667C15.1729 10.0832 15.5833 10.4936 15.5833 10.9998C15.5833 11.5061 15.1729 11.9165 14.6667 11.9165H7.33333C6.82707 11.9165 6.41667 11.5061 6.41667 10.9998ZM11 14.6665C10.4937 14.6665 10.0833 15.0769 10.0833 15.5832C10.0833 16.0894 10.4937 16.4998 11 16.4998H14.6667C15.1729 16.4998 15.5833 16.0894 15.5833 15.5832C15.5833 15.0769 15.1729 14.6665 14.6667 14.6665H11Z" fill="#4A4A4A"/>
</svg>